<?xml version="1.0" standalone="no"?>
<!DOCTYPE svg PUBLIC "-//W3C//DTD SVG 20010904//EN"
 "http://www.w3.org/TR/2001/REC-SVG-20010904/DTD/svg10.dtd">
<svg version="1.0" xmlns="http://www.w3.org/2000/svg"
 width="200.000000pt" height="486.000000pt" viewBox="0 0 524.000000 486.000000"
 preserveAspectRatio="xMidYMid meet">
<metadata>
Created by potrace 1.12, written by Peter Selinger 2001-2015
</metadata>
<g transform="translate(0.000000,486.000000) scale(0.100000,-0.100000)">
<path d="M2470 4835 c-317 -87 -501 -403 -420 -720 11 -43 19 -79 18 -81 -7
-6 -330 -135 -332 -132 -2 2 -16 28 -32 58 -35 67 -142 177 -208 215 -178 103
-390 112 -569 22 -105 -52 -217 -161 -264 -258 -84 -170 -84 -368 0 -538 47
-97 159 -206 264 -258 209 -104 455 -77 637 72 l55 45 94 -98 c51 -53 119
-125 151 -159 l58 -62 -45 -51 c-114 -131 -207 -368 -207 -531 l0 -36 -112 -7
c-62 -3 -171 -7 -242 -8 l-130 -1 -17 70 c-70 282 -322 468 -609 449 -95 -6
-151 -21 -231 -61 -148 -75 -261 -215 -304 -375 -19 -72 -19 -230 0 -304 20
-75 74 -178 125 -238 52 -60 170 -139 251 -168 43 -15 98 -24 164 -27 120 -6
194 9 305 65 41 20 79 37 83 37 4 0 50 -55 102 -123 l94 -123 -33 -44 c-52
-67 -71 -128 -71 -220 1 -94 28 -165 90 -234 80 -88 231 -131 347 -97 290 84
350 469 97 631 -91 58 -226 69 -322 27 l-47 -21 -99 130 -99 130 47 62 c72 95
107 184 126 319 l6 36 112 6 c61 3 169 7 239 9 l127 4 6 -51 c32 -256 178
-490 396 -636 75 -50 226 -120 259 -120 7 0 10 -230 10 -715 l0 -715 230 0
230 0 0 713 0 713 58 18 c89 28 200 90 291 162 l83 67 56 -54 c31 -30 85 -80
118 -113 l62 -58 -24 -47 c-40 -76 -50 -157 -31 -237 39 -156 154 -256 310
-271 145 -13 288 71 351 206 17 37 21 65 21 141 0 84 -3 102 -28 151 -32 67
-109 142 -175 172 -37 17 -67 21 -137 22 -78 0 -97 -4 -145 -27 -30 -15 -63
-33 -72 -40 -18 -13 -13 -17 -191 149 l-68 64 51 79 c61 96 105 202 126 307 9
43 19 81 22 85 4 3 135 3 292 0 l285 -7 7 -55 c15 -123 95 -270 191 -355 62
-55 168 -109 257 -131 88 -22 241 -15 329 16 180 63 329 224 376 407 19 73 19
232 0 303 -53 201 -216 364 -420 421 -55 15 -201 18 -280 6 l-50 -8 -64 171
c-35 94 -62 172 -60 174 2 1 25 17 50 34 152 103 249 290 249 482 0 163 -54
294 -170 411 -129 131 -283 189 -465 176 -145 -10 -269 -68 -376 -177 -193
-195 -222 -508 -70 -736 l21 -31 -192 -163 c-105 -90 -197 -163 -202 -163 -6
0 -41 23 -79 51 -37 28 -101 67 -142 87 -69 34 -243 85 -288 85 -19 0 -19 4
-12 148 4 81 10 185 14 231 l6 84 70 17 c91 21 146 47 221 102 281 209 313
632 67 882 -62 63 -147 119 -226 146 -82 29 -266 37 -347 15z m240 -356 c161
-73 195 -265 68 -386 -146 -141 -393 -32 -392 172 1 128 107 235 234 235 25 0
65 -10 90 -21z m-570 -558 c79 -124 227 -214 396 -241 38 -6 70 -13 72 -14 3
-4 -16 -352 -24 -412 l-5 -41 -92 -6 c-51 -4 -119 -14 -152 -22 -85 -23 -215
-86 -293 -142 l-66 -47 -152 160 c-85 87 -153 162 -154 166 0 4 13 28 29 55
51 82 74 166 75 273 0 52 -2 114 -6 136 l-8 41 173 71 c94 39 173 71 173 72 1
0 16 -22 34 -49z m-888 -25 c63 -19 110 -57 142 -117 97 -178 -72 -392 -265
-336 -110 33 -173 115 -173 227 0 108 62 193 164 225 58 18 77 18 132 1z
m2864 -1 c105 -31 168 -115 168 -225 0 -112 -63 -194 -173 -227 -193 -56 -362
158 -265 336 31 59 78 98 138 117 54 17 73 17 132 -1z m-434 -686 c59 -46 118
-78 198 -105 73 -25 261 -26 338 -2 40 13 54 14 57 5 3 -7 21 -55 41 -107 19
-52 46 -123 59 -157 l24 -62 -37 -22 c-160 -96 -265 -240 -296 -405 l-12 -69
-285 4 c-156 2 -285 4 -286 5 -1 0 -7 48 -13 106 -19 176 -81 331 -185 465
-36 47 -43 61 -33 71 32 30 370 314 374 314 3 0 28 -18 56 -41z m-961 -571
c76 -35 129 -85 170 -160 32 -60 34 -68 34 -163 0 -87 -3 -107 -27 -157 -34
-73 -103 -142 -176 -176 -49 -23 -70 -27 -152 -27 -84 0 -101 3 -150 28 -76
39 -143 108 -177 181 -24 53 -28 72 -27 151 1 109 21 161 90 235 86 92 156
121 279 117 62 -2 93 -8 136 -29z m-2031 -185 c82 -33 139 -120 140 -211 0
-68 -21 -117 -73 -170 -179 -183 -482 30 -373 263 35 76 89 118 181 138 27 6
83 -3 125 -20z m4050 0 c140 -57 184 -252 83 -364 -98 -108 -244 -115 -340
-17 -52 53 -73 102 -73 168 0 170 169 279 330 213z m-3282 -1083 c70 -43 92
-128 49 -191 -57 -86 -178 -88 -233 -4 -77 118 64 268 184 195z m2350 6 c57
-30 77 -63 77 -128 0 -56 -2 -62 -37 -93 -20 -19 -49 -37 -63 -41 -100 -25
-201 85 -165 181 30 79 119 117 188 81z"/>
</g>
</svg>
